<svg xmlns="http://www.w3.org/2000/svg" xmlns:xlink="http://www.w3.org/1999/xlink">
        <path fill-rule="evenodd" d="M908.514,908.210 L555.983,0.855 C546.304,1.829 529.870,2.304 506.658,2.304 C483.446,2.304 466.513,1.829 455.882,0.855 L125.112,848.782 C89.319,941.547 47.723,992.278 0.348,1000.974 L0.348,1029.963 C29.362,1027.064 66.107,1025.615 110.604,1025.615 C164.758,1025.615 224.714,1027.064 290.497,1029.963 L290.497,1000.974 C247.926,999.049 215.783,991.077 194.022,977.058 C172.261,963.062 161.380,938.173 161.380,902.412 C161.380,864.726 174.913,811.097 202.001,741.523 L239.721,641.511 L555.983,641.511 L643.028,879.221 C654.634,908.210 660.437,931.401 660.437,948.794 C660.437,967.161 652.684,979.957 637.225,987.205 C621.743,994.452 595.629,999.049 558.884,1000.974 L558.884,1029.963 C607.235,1027.064 680.747,1025.615 779.398,1025.615 C868.369,1025.615 941.881,1027.064 999.911,1029.963 L999.911,1000.974 C984.429,1000.023 968.471,992.278 952.036,977.783 C935.580,963.289 921.072,940.098 908.514,908.210 L908.514,908.210 ZM251.327,612.522 L402.204,221.171 L545.828,612.522 L251.327,612.522 Z"/>
      </svg>