<svg xmlns="http://www.w3.org/2000/svg" viewBox="0 0 151.79 96.86"><defs><style>.cls-1{fill:#41bab4;}</style></defs><title>logo_outline_1</title><g id="Layer_2" data-name="Layer 2"><g id="Layer_1-2" data-name="Layer 1"><path class="cls-1" d="M0,0V96.86H151.79V0ZM111.22,74.53,78.31,41.62h0a9.63,9.63,0,0,0-13.62,0h0A9.63,9.63,0,0,0,78.31,55.24h0c.14-.14.28-.29.41-.44l-2.1-2.11h0l-.79-.78,3.41-3.4L81,50.23h0l3.84,3.83h0L88,57.22h0l3.52,3.52h0l3,3L98,67.25l10.27,10.26-3.4,3.4L94.9,71l-.43.44A32.49,32.49,0,0,1,39.9,56L51.77,67.82l.17.17a27.65,27.65,0,0,0,39.13,0l.43-.43-3-3h0l-3.41-3.4-3-3h0l-.94.93A14.43,14.43,0,0,1,61.3,38.22h0a14.47,14.47,0,0,1,20.39,0h0L94.78,51.3v0l3.62,3.62a27.67,27.67,0,1,0-54.54-7.76l.55.56,3.83,3.83,9.25,9.24,0,0c.26.29.53.57.8.84a18.63,18.63,0,0,0,23.58,2.3l3.45,3.46A23.46,23.46,0,0,1,54.92,65L44.54,54.63h0L39,49.13v-.7A32.48,32.48,0,1,1,102.29,58.8l12.33,12.33ZM53,50.29l-4.73-4.73a23.46,23.46,0,0,1,46.54-.23l-9.67-9.68-.4-.41A18.65,18.65,0,0,0,52.86,48.43Q52.86,49.38,53,50.29Z"/></g></g></svg>