<?xml version="1.0" encoding="utf-8"?>
<!-- Generator: Adobe Illustrator 23.0.6, SVG Export Plug-In . SVG Version: 6.00 Build 0)  -->
<svg version="1.1" id="Layer_1" xmlns="http://www.w3.org/2000/svg" xmlns:xlink="http://www.w3.org/1999/xlink" x="0px" y="0px"
	 viewBox="0 0 1000 790" style="enable-background:new 0 0 1000 790;" xml:space="preserve">
<style type="text/css">
	.st0{fill-rule:evenodd;clip-rule:evenodd;fill:#13B2A9;}
</style>
<path class="st0" d="M0.68,0.43v789.56H1000V0.43H0.68z M814.37,612.98l-285.9-285.91l0.03-0.03
	c-15.13-15.1-36.04-24.45-59.17-24.45c-23.13,0-44.04,9.35-59.17,24.45l0.04,0.04c-15.12,15.12-24.48,36.04-24.48,59.13
	c0,23.09,9.36,44.01,24.48,59.13c15.12,15.12,36.03,24.48,59.13,24.48c23.09,0,44.01-9.36,59.13-24.48l0.04,0.04
	c1.24-1.25,2.45-2.53,3.61-3.85l-18.29-18.3l0,0.01l-6.8-6.79l29.55-29.55l14.94,14.94v-0.01l33.32,33.32l-0.01,0.01l27.41,27.41
	l0.01-0.01l30.6,30.6l-0.01,0.01l26.48,26.48l30.04,30.04l89.17,89.17l-29.55,29.55l-86.42-86.42l-3.7,3.76
	c-51.06,51.07-121.62,82.66-199.52,82.66c-77.92,0-148.46-31.58-199.52-82.66c-36.32-36.31-62.78-82.48-75.04-134.15l103.08,103.07
	l1.51,1.53c43.49,43.5,103.59,70.4,169.97,70.4c66.38,0,126.48-26.9,169.97-70.4c1.24-1.24,2.47-2.5,3.69-3.77l-25.88-25.88
	l-0.01,0.01l-29.56-29.57l-25.92-25.92l-0.05,0.06l-0.06,0.06l-8.11,8.1c-22.25,20.11-51.74,32.36-84.08,32.36
	c-34.63,0-65.98-14.04-88.68-36.74c-22.7-22.7-36.74-54.05-36.74-88.68c0-34.62,14.04-65.98,36.74-88.68h0.08
	c48.72-48.71,128.48-48.71,177.2,0l0.04,0.04l113.54,113.54l0.11-0.11l-0.01,0.12l31.44,31.45c4.34-18.08,6.65-36.95,6.65-56.36
	c0-66.38-26.91-126.48-70.4-169.97c-43.49-43.49-103.59-70.4-169.97-70.4c-66.38,0-126.48,26.91-169.97,70.4
	c-41.08,41.07-67.35,96.95-70.15,158.94l4.85,4.84l33.27,33.27l80.32,80.32l0.22-0.22c2.23,2.53,4.54,4.99,6.92,7.37
	c29.3,29.31,69.81,47.44,114.54,47.44c33.42,0,64.48-10.12,90.27-27.46l29.99,30C555.89,575.42,514.32,590,469.34,590
	c-56.26,0-107.22-22.82-144.09-59.7l-90.22-90.2l0,0.02l-47.8-47.8c-0.04-2.03-0.07-4.07-0.07-6.11
	c0-77.9,31.59-148.46,82.66-199.52c51.06-51.06,121.6-82.66,199.52-82.66c77.91,0,148.47,31.6,199.52,82.66
	c51.06,51.06,82.66,121.61,82.66,199.52c0,31.51-5.17,61.81-14.7,90.11l107.11,107.11L814.37,612.98z M308.15,402.41l-41.1-41.1
	c5.65-46.31,26.83-87.83,58.19-119.19c36.88-36.88,87.83-59.7,144.09-59.7c56.27,0,107.21,22.82,144.09,59.7
	c30.89,30.89,51.92,71.65,57.93,117.13l-84.03-84.03c-1.13-1.2-2.28-2.38-3.44-3.55c-29.3-29.3-69.81-47.44-114.55-47.44
	c-44.74,0-85.24,18.13-114.54,47.44c-29.3,29.3-47.44,69.81-47.44,114.55C307.35,391.67,307.62,397.07,308.15,402.41z"/>
</svg>
