<svg xmlns="http://www.w3.org/2000/svg" xmlns:xlink="http://www.w3.org/1999/xlink" viewBox="0 0 1500 1500">
        <path fill-rule="evenodd" d="M946.385,0.473 C916.395,3.372 874.324,4.822 820.170,4.822 C752.461,4.822 700.234,3.372 663.490,0.473 L663.490,29.462 C705.063,34.309 735.528,42.757 754.887,54.828 C774.222,66.922 787.279,86.489 794.057,113.531 C800.812,140.594 804.212,182.153 804.212,238.183 L804.212,620.837 C804.212,740.666 784.377,833.182 744.731,898.407 C705.063,963.632 636.878,996.244 540.176,996.244 C465.690,996.244 413.712,972.329 384.221,924.497 C354.708,876.665 339.973,802.018 339.973,700.557 L339.973,154.115 C339.973,117.403 342.875,90.838 348.678,74.395 C354.481,57.976 365.361,46.856 381.320,41.058 C397.278,35.260 422.666,31.410 457.484,29.462 L457.484,0.473 C404.282,3.372 327.393,4.822 226.815,4.822 C125.263,4.822 49.824,3.372 0.499,0.473 L0.499,29.462 C32.415,31.410 55.854,35.260 70.860,41.058 C85.844,46.856 95.999,57.976 101.326,74.395 C106.630,90.838 109.305,117.403 109.305,154.115 L109.305,609.242 C109.305,707.804 117.035,784.399 132.517,838.979 C147.976,893.583 177.966,938.765 222.463,974.503 C284.346,1022.833 371.391,1046.975 483.597,1046.975 C555.160,1046.975 615.615,1035.130 664.940,1011.464 C714.266,987.797 751.985,954.709 778.098,912.176 C817.745,845.502 837.579,743.089 837.579,604.893 L837.579,220.790 C837.579,171.508 840.231,134.321 845.558,109.182 C850.862,84.066 861.018,65.699 876.024,54.103 C891.007,42.508 914.469,34.309 946.385,29.462 L946.385,0.473 Z"/>
      </svg>