<svg xmlns="http://www.w3.org/2000/svg" xmlns:xlink="http://www.w3.org/1999/xlink">
        <path fill-rule="evenodd" d="M890.926,4.444 C835.797,4.444 775.342,2.995 709.582,0.096 L709.582,29.085 C749.229,31.033 779.445,40.681 800.254,58.074 C821.040,75.467 831.445,103.505 831.445,142.142 C831.445,185.625 817.890,244.577 790.824,318.975 L612.383,800.191 L357.051,150.839 C345.445,121.850 339.642,99.157 339.642,82.715 C339.642,62.422 347.372,48.902 362.854,42.130 C378.314,35.381 404.427,31.033 441.195,29.085 L441.195,0.096 C393.796,2.995 320.284,4.444 220.681,4.444 C131.687,4.444 58.198,2.995 0.168,0.096 L0.168,29.085 C15.650,30.059 31.586,37.782 48.043,52.276 C64.477,66.771 78.984,89.962 91.565,121.850 L461.505,1029.204 C472.136,1028.230 488.570,1027.755 510.830,1027.755 C534.042,1027.755 550.953,1028.230 561.606,1029.204 L867.714,201.569 C886.075,151.337 906.884,112.202 930.096,84.164 C953.308,56.149 976.996,37.782 1001.182,29.085 L1001.182,0.096 C972.167,2.995 935.400,4.444 890.926,4.444 L890.926,4.444 Z"/>
      </svg>