<svg xmlns="http://www.w3.org/2000/svg" viewBox="0 0 75.6 64.96"><defs><style>.cls-1{fill:#41bab4;fill-rule:evenodd;}</style></defs><title>Asset 1</title><g id="Layer_2" data-name="Layer 2"><g id="Layer_1-2" data-name="Layer 1"><path class="cls-1" d="M42.68,22.27h0L55.75,35.35l0,0v0L59.38,39A27.67,27.67,0,1,0,4.84,31.21l.56.56L9.23,35.6l9.24,9.24,0,0c.26.29.52.57.8.85A18.65,18.65,0,0,0,42.87,48l3.45,3.45a23.46,23.46,0,0,1-30.43-2.35L5.51,38.68h0L0,33.18c0-.23,0-.46,0-.7A32.48,32.48,0,1,1,63.27,42.85L75.6,55.18l-3.4,3.4L39.29,25.67h0a9.66,9.66,0,0,0-13.62,0h0A9.63,9.63,0,0,0,39.29,39.29h0l.42-.44L37.6,36.74h0L36.82,36l3.4-3.4,1.72,1.72h0l3.83,3.83h0l3.16,3.16h0l3.52,3.52h0l3,3.05L59,51.3,69.22,61.56,65.82,65,55.87,55l-.42.44A32.48,32.48,0,0,1,.88,40L12.74,51.87l.18.18a27.68,27.68,0,0,0,39.13,0l.42-.44-3-3h0l-3.4-3.4-3-3h0l-.93.93A14.44,14.44,0,0,1,22.27,22.27h0a14.49,14.49,0,0,1,20.4,0Z"/></g></g></svg>