<svg xmlns="http://www.w3.org/2000/svg" xmlns:xlink="http://www.w3.org/1999/xlink">
        <path fill-rule="evenodd" d="M795.098,806.468 C795.098,757.187 796.548,716.602 799.450,684.714 L766.083,684.714 C748.674,796.820 718.933,876.290 676.862,923.148 C634.790,970.029 579.412,993.447 510.751,993.447 L439.665,993.447 C409.675,993.447 387.914,991.046 374.381,986.199 C360.826,981.375 351.645,971.954 346.817,957.935 C341.966,943.939 339.563,921.472 339.563,890.536 L339.563,525.275 L385.987,525.275 C483.663,525.275 542.668,589.051 562.978,716.602 L596.345,716.602 C590.542,628.684 587.641,560.062 587.641,510.780 L587.641,441.207 C587.641,390.974 589.092,345.543 591.993,304.959 L558.626,304.959 C547.972,357.139 529.362,402.072 502.772,439.757 C476.160,477.443 437.239,496.286 385.987,496.286 L339.563,496.286 L339.563,136.823 C339.563,105.909 341.966,83.442 346.817,69.423 C351.645,55.427 360.826,46.006 374.381,41.159 C387.914,36.335 409.675,33.912 439.665,33.912 L499.145,33.912 C567.806,33.912 621.008,54.702 658.727,96.238 C696.447,137.797 722.560,210.269 737.068,313.655 L770.435,313.655 C767.533,290.464 766.083,257.625 766.083,215.093 C766.083,152.291 769.460,80.793 776.238,0.575 C716.259,3.473 615.205,4.923 473.032,4.923 C262.175,4.923 104.543,3.473 0.089,0.575 L0.089,29.564 C32.006,31.511 55.444,35.361 70.450,41.159 C85.434,46.957 95.589,58.077 100.916,74.496 C106.220,90.939 108.895,117.504 108.895,154.216 L108.895,873.142 C108.895,909.877 106.220,936.443 100.916,952.862 C95.589,969.304 85.434,980.402 70.450,986.199 C55.444,991.997 32.006,995.870 0.089,997.795 L0.089,1026.784 C104.543,1023.885 262.175,1022.436 473.032,1022.436 C628.738,1022.436 739.470,1023.885 805.253,1026.784 C798.475,968.806 795.098,895.382 795.098,806.468 L795.098,806.468 Z"/>
      </svg>