<svg xmlns="http://www.w3.org/2000/svg" viewBox="0 0 96.86 96.86">
<title>logo_outline</title>
<g>
<g>
<path d="M0,0V96.86H96.86V0ZM84.16,74.53,51.25,41.62h0a9.64,9.64,0,0,0-13.63,0h0A9.63,9.63,0,0,0,51.25,55.24h0c.14-.14.28-.29.41-.44l-2.1-2.11h0l-.78-.78,3.4-3.4,1.72,1.72h0l3.84,3.83h0l3.15,3.16h0l3.53,3.52h0l3,3,3.46,3.46L81.19,77.51l-3.41,3.4L67.84,71l-.43.44A32.49,32.49,0,0,1,12.84,56L24.71,67.82l.17.17A27.65,27.65,0,0,0,64,68l.42-.43-3-3h0l-3.4-3.4-3-3h0l-.94.93A14.43,14.43,0,0,1,34.24,38.22h0a14.47,14.47,0,0,1,20.39,0h0L67.72,51.3v0l3.62,3.62a27.67,27.67,0,1,0-54.54-7.76l.55.56,3.83,3.83,9.25,9.24,0,0c.26.29.53.57.8.84a18.63,18.63,0,0,0,23.58,2.3l3.45,3.46A23.46,23.46,0,0,1,27.86,65L17.47,54.63h0L12,49.13c0-.23,0-.47,0-.7A32.49,32.49,0,1,1,75.23,58.8L87.56,71.13ZM25.89,50.29l-4.73-4.73a23.46,23.46,0,0,1,46.54-.23L58,35.65l-.4-.41A18.65,18.65,0,0,0,25.8,48.43Q25.8,49.38,25.89,50.29Z"/>
</g>
</g>
</svg>