<svg xmlns="http://www.w3.org/2000/svg" xmlns:xlink="http://www.w3.org/1999/xlink">
        <path fill-rule="evenodd" d="M895.384,0.377 C808.339,3.276 659.389,4.725 448.555,4.725 C237.698,4.725 88.271,3.276 0.274,0.377 C7.029,92.191 10.430,174.311 10.430,246.783 C10.430,292.214 8.979,328.926 6.077,356.941 L39.444,356.941 C55.879,275.772 75.713,211.770 98.925,164.889 C122.137,118.032 149.928,84.445 182.343,64.153 C214.735,43.861 254.155,33.714 300.579,33.714 L332.495,33.714 L332.495,861.349 C332.495,901.934 328.369,931.421 320.164,949.766 C311.935,968.133 297.428,980.453 276.641,986.727 C255.832,993.023 222.714,996.646 177.265,997.597 L177.265,1026.586 C293.325,1023.688 381.820,1022.238 442.752,1022.238 C504.635,1022.238 596.531,1023.688 718.393,1026.586 L718.393,997.597 C672.921,996.646 639.804,993.023 619.017,986.727 C598.208,980.453 583.701,968.133 575.495,949.766 C567.266,931.421 563.163,901.934 563.163,861.349 L563.163,33.714 L596.531,33.714 C666.166,33.714 721.045,57.879 761.190,106.187 C801.312,154.517 833.002,238.087 856.214,356.941 L889.581,356.941 C886.680,328.926 885.229,292.214 885.229,246.783 C885.229,174.311 888.606,92.191 895.384,0.377 L895.384,0.377 Z"/>
      </svg>