<svg xmlns="http://www.w3.org/2000/svg" viewBox="0 0 19.03 22.59"><defs><style>.cls-1{fill:#022639;fill-rule:evenodd;}</style></defs><title>Asset 1</title><g id="Layer_2" data-name="Layer 2"><g id="Layer_1-2" data-name="Layer 1"><path class="cls-1" d="M19,0H15.15V12.8a6.44,6.44,0,0,1-1.5,4.64A5.44,5.44,0,0,1,9.53,19a5.37,5.37,0,0,1-4.15-1.62,6.74,6.74,0,0,1-1.5-4.74V0H0V12.8A12.17,12.17,0,0,0,.67,17a8.32,8.32,0,0,0,1.9,3.07,8.06,8.06,0,0,0,3,1.86,11.71,11.71,0,0,0,3.91.62A11.91,11.91,0,0,0,13.42,22a7.74,7.74,0,0,0,3-1.88A8.51,8.51,0,0,0,18.35,17,12.82,12.82,0,0,0,19,12.61V0Z"/></g></g></svg>