<?xml version="1.0" standalone="no"?>
<!DOCTYPE svg PUBLIC "-//W3C//DTD SVG 20010904//EN"
 "http://www.w3.org/TR/2001/REC-SVG-20010904/DTD/svg10.dtd">
<svg version="1.0" xmlns="http://www.w3.org/2000/svg"
 width="608.000000pt" height="608.000000pt" viewBox="0 0 608.000000 608.000000"
 preserveAspectRatio="xMidYMid meet">
<metadata>
Created by potrace 1.11, written by Peter Selinger 2001-2013
</metadata>
<g transform="translate(0.000000,608.000000) scale(0.100000,-0.100000)"
fill="#000000" stroke="none">
<path d="M2448 5645 c-2 -2 -39 -6 -83 -9 -44 -4 -96 -9 -115 -13 -168 -28
-250 -45 -315 -64 -128 -38 -260 -81 -270 -89 -5 -3 -32 -15 -60 -25 -53 -19
-272 -127 -315 -155 -156 -102 -238 -158 -255 -172 -11 -9 -51 -42 -90 -73
-149 -121 -287 -265 -415 -435 -86 -112 -170 -241 -170 -259 0 -5 -4 -11 -9
-13 -11 -4 -144 -271 -161 -324 -7 -21 -16 -43 -20 -49 -22 -31 -113 -359
-124 -447 -2 -21 -7 -41 -9 -45 -3 -4 -8 -35 -12 -68 -4 -33 -9 -71 -11 -85
-2 -14 -6 -95 -9 -180 l-6 -155 683 -682 c376 -375 708 -702 738 -727 76 -61
231 -166 246 -166 7 0 14 -4 16 -9 8 -21 331 -160 411 -176 10 -2 27 -7 37
-10 10 -3 28 -8 40 -10 12 -2 29 -6 38 -9 25 -7 100 -19 202 -32 75 -10 332
-10 405 0 33 5 71 10 85 11 59 8 89 14 150 30 36 9 72 18 80 20 43 9 197 67
280 106 93 43 294 161 305 179 5 8 -256 280 -269 280 -3 0 -22 -12 -43 -26
-57 -39 -228 -119 -317 -148 -148 -49 -268 -69 -441 -72 -145 -2 -226 3 -310
21 -16 4 -39 8 -50 10 -141 23 -374 125 -525 230 -108 75 -104 71 -767 734
l-604 605 5 70 c3 39 8 86 10 104 3 18 8 52 11 75 3 23 8 49 10 57 2 8 7 29
10 47 10 61 76 279 112 367 38 96 136 291 159 317 8 8 14 19 14 23 0 5 25 45
57 90 180 259 401 469 667 635 65 41 279 151 301 155 5 2 28 10 50 20 60 26
172 62 261 85 78 20 106 26 173 37 18 3 43 8 55 10 95 19 439 26 561 12 173
-20 316 -51 450 -95 28 -10 52 -17 55 -18 21 -2 194 -79 280 -123 262 -136
510 -334 691 -552 30 -36 56 -67 59 -70 3 -3 10 -12 15 -21 6 -9 29 -43 51
-75 84 -120 224 -381 224 -417 0 -7 4 -17 9 -22 17 -19 97 -282 102 -337 0 -4
5 -22 10 -40 45 -158 58 -585 23 -762 -4 -21 -8 -45 -20 -121 -3 -22 -10 -47
-15 -56 -7 -13 -149 124 -699 675 -617 617 -806 796 -838 796 -6 0 -12 4 -14
8 -5 12 -177 98 -233 115 -83 27 -167 47 -225 55 -87 11 -289 7 -360 -7 -36
-7 -72 -14 -80 -16 -44 -9 -156 -51 -235 -90 -79 -38 -161 -91 -235 -152 -36
-29 -130 -127 -130 -135 0 -5 -9 -17 -20 -28 -28 -28 -105 -164 -136 -240 -86
-211 -112 -462 -68 -660 3 -14 7 -34 9 -45 35 -183 165 -419 304 -554 67 -64
120 -111 126 -111 3 0 23 -13 43 -30 82 -65 271 -148 412 -179 136 -30 316
-32 465 -6 40 7 165 43 190 55 11 5 27 11 35 12 8 2 17 5 20 8 3 3 28 16 55
28 91 43 211 128 279 199 l21 21 378 -377 377 -378 -33 -34 c-177 -182 -433
-355 -692 -469 -27 -12 -59 -26 -70 -31 -85 -38 -354 -111 -465 -125 -25 -3
-56 -7 -69 -9 -159 -26 -478 -21 -631 10 -14 3 -41 7 -60 10 -19 3 -62 12 -95
21 -33 8 -70 18 -82 20 -26 5 -212 69 -268 92 -91 37 -286 142 -371 199 -172
116 -252 189 -777 712 -291 289 -530 528 -532 530 -3 2 5 -29 16 -70 12 -41
22 -78 23 -84 2 -5 5 -17 8 -25 3 -8 16 -44 28 -80 42 -123 114 -280 199 -434
31 -56 145 -229 166 -253 5 -6 21 -26 35 -44 95 -126 274 -310 400 -411 41
-33 84 -67 95 -76 30 -25 172 -122 179 -122 3 0 24 -13 48 -29 124 -84 504
-248 641 -276 10 -2 27 -7 37 -10 10 -3 28 -8 39 -10 12 -3 31 -7 44 -10 12
-3 33 -7 47 -10 14 -3 34 -7 45 -9 22 -4 147 -23 210 -32 71 -10 428 -13 510
-4 83 9 166 19 200 26 11 2 34 7 50 10 23 4 123 27 215 49 3 1 25 7 50 15 25
7 50 14 55 16 36 9 171 60 173 67 2 4 10 7 18 7 24 0 238 106 348 172 95 57
230 150 286 197 76 63 120 103 184 163 l71 67 399 -401 399 -400 133 133 c74
74 134 137 134 142 0 5 -213 221 -473 480 -261 260 -784 781 -1163 1160 l-689
687 -137 -137 -136 -136 116 -114 116 -113 -44 -46 c-25 -25 -61 -55 -80 -67
-19 -11 -37 -24 -40 -28 -11 -14 -128 -68 -193 -88 -459 -141 -937 171 -993
650 -37 307 115 605 387 763 51 29 167 72 220 81 19 3 43 8 53 12 20 6 156 5
211 -1 100 -11 241 -65 332 -127 64 -43 42 -21 1488 -1466 695 -695 1267
-1263 1272 -1263 4 0 67 60 140 132 l133 133 -496 496 -496 496 13 39 c7 22
14 41 14 44 1 3 7 25 14 50 14 48 55 239 66 305 32 194 37 551 10 715 -2 14
-9 57 -16 95 -6 39 -12 79 -14 90 -2 11 -8 40 -15 65 -7 25 -13 52 -15 60 -2
8 -8 33 -14 55 -6 22 -11 43 -11 47 0 4 -8 27 -16 50 -9 24 -17 48 -18 53 -2
6 -7 19 -11 30 -4 11 -21 56 -38 100 -42 112 -161 343 -233 450 -62 94 -106
157 -114 165 -5 5 -65 80 -100 124 -32 40 -247 253 -285 281 -22 17 -44 35
-50 41 -19 22 -176 133 -265 189 -342 211 -695 331 -1120 381 -58 6 -416 14
-422 9z"/>
<path d="M2477 4924 c-1 -1 -27 -5 -57 -8 -30 -4 -66 -8 -80 -11 -14 -2 -41
-6 -60 -9 -264 -42 -549 -165 -791 -341 -81 -60 -105 -81 -215 -190 -174 -174
-318 -389 -407 -610 -30 -72 -67 -177 -72 -202 -2 -10 -8 -38 -14 -63 -18 -70
-18 -72 -25 -120 -4 -25 -9 -57 -12 -71 -5 -24 17 -48 180 -213 102 -102 187
-186 189 -186 1 0 2 53 2 118 -1 64 2 142 6 172 4 30 10 77 14 104 3 27 8 52
10 56 2 4 7 20 10 36 7 34 7 32 29 105 22 73 79 208 113 267 32 56 94 152 108
169 5 6 21 26 35 45 77 102 221 233 354 322 114 76 327 171 426 190 14 3 53
12 88 21 34 8 93 18 130 22 75 9 321 8 367 0 305 -56 477 -126 715 -294 50
-35 111 -95 528 -510 234 -233 426 -423 428 -423 4 0 0 27 -12 105 -23 141
-122 416 -191 527 -13 21 -23 40 -23 43 0 5 -58 102 -72 120 -4 6 -39 51 -77
100 -75 99 -174 203 -266 280 -33 28 -62 53 -65 56 -3 3 -50 36 -105 73 -243
162 -552 277 -840 311 -45 5 -343 13 -348 9z"/>
</g>
</svg>
